<svg fill="none" height="48" viewBox="0 0 48 48" width="48" xmlns="http://www.w3.org/2000/svg"><g stroke="#000" stroke-linecap="round" stroke-linejoin="round" stroke-miterlimit="2" stroke-width="4"><path d="m13 26h2c2.76 0 5-2.24 5-5s-2.24-5-5-5h-4c-2.76 0-5 2.24-5 5v9c0 3.3137 2.68629 6 6 6h24c3.3137 0 6-2.6863 6-6v-4c0-2.2091-1.7909-4-4-4h-14"/><path d="m34 44h-20c-1.11 0-2-.9-2-2v-6h24v6c0 1.1-.9 2-2 2z"/><path d="m6 20c-1 0-2-2-2-4v-4c0-4.42 3.58-8 8-8h24c4.42 0 8 3.58 8 8v4c0 3.31-2.69 6-6 6h-18.1"/></g></svg>