<svg width="32" height="32" viewBox="0 0 32 32" fill="none" xmlns="http://www.w3.org/2000/svg">
<g clip-path="url(#clip0_54_76)">
<path d="M16 1.33327C12.1513 1.29416 8.44451 2.78475 5.69432 5.47744C2.94413 8.17013 1.37556 11.8446 1.33334 15.6933C1.34817 18.7348 2.3266 21.6934 4.12809 24.1441C5.92959 26.5948 8.46144 28.4115 11.36 29.3333C12.0933 29.4666 12.36 29.0266 12.36 28.6399C12.36 28.2533 12.36 27.3999 12.36 26.1999C8.28001 27.0666 7.41334 24.2799 7.41334 24.2799C7.14174 23.4051 6.56432 22.6573 5.78668 22.1733C4.45334 21.2933 5.89334 21.3066 5.89334 21.3066C6.35421 21.3682 6.79515 21.5334 7.18309 21.7897C7.57103 22.046 7.8959 22.3868 8.13334 22.7866C8.54712 23.5041 9.22606 24.0305 10.024 24.2524C10.822 24.4743 11.6752 24.3741 12.4 23.9733C12.4746 23.2431 12.8052 22.5629 13.3333 22.0533C10.08 21.6933 6.66668 20.4666 6.66668 14.9599C6.63758 13.5235 7.16833 12.1321 8.14668 11.0799C7.70111 9.8467 7.75372 8.48835 8.29334 7.29327C8.29334 7.29327 9.53334 6.9066 12.2933 8.75994C14.6959 8.11972 17.2242 8.11972 19.6267 8.75994C22.4267 6.9066 23.6267 7.29327 23.6267 7.29327C24.1663 8.48835 24.2189 9.8467 23.7733 11.0799C24.7744 12.1128 25.3339 13.4949 25.3333 14.9333C25.3333 20.4533 21.8933 21.6666 18.6667 22.0266C19.02 22.3696 19.2929 22.7867 19.4658 23.2478C19.6387 23.7088 19.7073 24.2025 19.6667 24.6933V28.6266C19.6667 28.6266 19.9333 29.4666 20.6667 29.3199C23.557 28.3925 26.0804 26.5754 27.8763 24.1281C29.6722 21.6809 30.6488 18.7287 30.6667 15.6933C30.6245 11.8446 29.0559 8.17013 26.3057 5.47744C23.5555 2.78475 19.8487 1.29416 16 1.33327Z" fill="#00001A"/>
</g>
<defs>
<clipPath id="clip0_54_76">
<rect width="32" height="32" fill="white"/>
</clipPath>
</defs>
</svg>
